<svg width="200" height="932" xmlns="http://www.w3.org/2000/svg">
<text x="6" y="40" font-size="11" fill="white">0.098</text>
<text x="6" y="54" font-size="11" fill="white">-0.207</text>
<text x="6" y="68" font-size="11" fill="white">0.089</text>
<text x="6" y="82" font-size="11" fill="white">-0.154</text>
<text x="6" y="96" font-size="11" fill="white">0.005</text>
<text x="6" y="110" font-size="11" fill="white">-0.200</text>
<text x="6" y="124" font-size="11" fill="white">0.059</text>
<text x="6" y="138" font-size="11" fill="white">-0.025</text>
<text x="6" y="152" font-size="11" fill="white">-0.252</text>
<text x="6" y="166" font-size="11" fill="white">0.018</text>
<text x="6" y="180" font-size="11" fill="white">-0.027</text>
<text x="6" y="194" font-size="11" fill="white">0.059</text>
<text x="6" y="208" font-size="11" fill="white">-0.002</text>
<text x="6" y="222" font-size="11" fill="white">-0.125</text>
<text x="6" y="236" font-size="11" fill="white">-0.207</text>
<text x="6" y="250" font-size="11" fill="white">-0.125</text>
<text x="6" y="264" font-size="11" fill="white">0.154</text>
<text x="6" y="278" font-size="11" fill="white">0.229</text>
<text x="6" y="292" font-size="11" fill="white">0.010</text>
<text x="6" y="306" font-size="11" fill="white">0.038</text>
<text x="6" y="320" font-size="11" fill="white">0.119</text>
<text x="6" y="334" font-size="11" fill="white">0.098</text>
<text x="6" y="348" font-size="11" fill="white">-0.186</text>
<text x="6" y="362" font-size="11" fill="white">0.059</text>
<text x="6" y="376" font-size="11" fill="white">0.094</text>
<text x="6" y="390" font-size="11" fill="white">0.094</text>
<text x="6" y="404" font-size="11" fill="white">0.012</text>
<text x="6" y="418" font-size="11" fill="white">-0.038</text>
<text x="6" y="432" font-size="11" fill="white">0.142</text>
<text x="6" y="446" font-size="11" fill="white">-0.025</text>
<text x="6" y="460" font-size="11" fill="white">-0.009</text>
<text x="6" y="474" font-size="11" fill="white">-0.020</text>
<text x="6" y="488" font-size="11" fill="white">-0.038</text>
<text x="6" y="502" font-size="11" fill="white">-0.042</text>
<text x="6" y="516" font-size="11" fill="white">0.119</text>
<text x="6" y="530" font-size="11" fill="white">-0.214</text>
<text x="6" y="544" font-size="11" fill="white">-0.207</text>
<text x="6" y="558" font-size="11" fill="white">-0.103</text>
<text x="6" y="572" font-size="11" fill="white">0.063</text>
<text x="6" y="586" font-size="11" fill="white">-0.252</text>
<text x="6" y="600" font-size="11" fill="white">-0.193</text>
<text x="6" y="614" font-size="11" fill="white">-0.067</text>
<text x="6" y="628" font-size="11" fill="white">0.018</text>
<text x="6" y="642" font-size="11" fill="white">-0.098</text>
<text x="6" y="656" font-size="11" fill="white">0.114</text>
<text x="6" y="670" font-size="11" fill="white">0.207</text>
<text x="6" y="684" font-size="11" fill="white">-0.098</text>
<text x="6" y="698" font-size="11" fill="white">0.136</text>
<text x="6" y="712" font-size="11" fill="white">0.200</text>
<text x="6" y="726" font-size="11" fill="white">0.033</text>
<text x="6" y="740" font-size="11" fill="white">-0.119</text>
<text x="6" y="754" font-size="11" fill="white">0.075</text>
<text x="6" y="768" font-size="11" fill="white">-0.221</text>
<text x="6" y="782" font-size="11" fill="white">-0.022</text>
<text x="6" y="796" font-size="11" fill="white">0.221</text>
<text x="6" y="810" font-size="11" fill="white">-0.125</text>
<text x="6" y="824" font-size="11" fill="white">0.109</text>
<text x="6" y="838" font-size="11" fill="white">0.010</text>
<text x="6" y="852" font-size="11" fill="white">0.114</text>
<text x="6" y="866" font-size="11" fill="white">-0.059</text>
<text x="6" y="880" font-size="11" fill="white">0.022</text>
<text x="6" y="894" font-size="11" fill="white">-0.089</text>
<text x="6" y="908" font-size="11" fill="white">-0.103</text>
<text x="6" y="922" font-size="11" fill="white">0.035</text>
</svg>