<?xml version="1.0" encoding="UTF-8"?>
<svg id="Layer_1" xmlns="http://www.w3.org/2000/svg" xmlns:xlink="http://www.w3.org/1999/xlink" version="1.1" viewBox="0 0 432 432">
  <!-- Generator: Adobe Illustrator 30.0.0, SVG Export Plug-In . SVG Version: 2.1.1 Build 123)  -->
  <defs>
    <style>
      .st0, .st1 {
        fill: none;
      }

      .st2 {
        fill: #ececec;
        stroke: #ececec;
      }

      .st2, .st3, .st4 {
        isolation: isolate;
        opacity: .5;
      }

      .st5 {
        clip-path: url(#clippath-1);
      }

      .st6 {
        clip-path: url(#clippath-3);
      }

      .st7 {
        clip-path: url(#clippath-2);
      }

      .st8 {
        fill: #fff;
      }

      .st3 {
        fill: #e6e6e6;
        stroke: #e6e6e6;
      }

      .st9 {
        clip-path: url(#clippath);
      }

      .st4 {
        fill: #f2f2f2;
        stroke: #f2f2f2;
      }

      .st1 {
        stroke: #fff;
        stroke-linecap: square;
        stroke-linejoin: round;
        stroke-opacity: .7;
        stroke-width: 1.5px;
      }
    </style>
    <clipPath id="clippath">
      <rect class="st0" x="55.74" y="47.3" width="332.64" height="332.64"/>
    </clipPath>
    <clipPath id="clippath-1">
      <rect class="st0" x="55.74" y="47.3" width="332.64" height="332.64"/>
    </clipPath>
    <clipPath id="clippath-2">
      <rect class="st0" x="55.74" y="47.3" width="332.64" height="332.64"/>
    </clipPath>
    <clipPath id="clippath-3">
      <rect class="st0" x="55.74" y="47.3" width="332.64" height="332.64"/>
    </clipPath>
  </defs>
  <g id="figure_1">
    <g id="patch_1">
      <path class="st0" d="M6.06,432h432V0H6.06v432Z"/>
    </g>
    <g id="patch_2">
      <path class="st0" d="M61.14,384.48h332.64V51.84H61.14v332.64Z"/>
    </g>
    <g id="pane3d_1">
      <g id="patch_3">
        <path class="st4" d="M86.26,302.46l109.85-92.08-1.53-132.79-115.11,84"/>
      </g>
    </g>
    <g id="pane3d_2">
      <g id="patch_4">
        <path class="st3" d="M196.1,210.38l176.27,51.23,6.29-137.37-184.09-46.66"/>
      </g>
    </g>
    <g id="pane3d_3">
      <g id="patch_5">
        <path class="st2" d="M86.26,302.46l186.85,61.03,99.26-101.87-176.27-51.23"/>
      </g>
    </g>
    <g id="axes_1">
      <g id="line2d_4">
        <g class="st9">
          <path class="st1" d="M194.77,210.81l-55.02,94.71"/>
        </g>
      </g>
      <g id="line2d_5">
        <g class="st5">
          <path class="st1" d="M194.77,210.81l121,11.8"/>
        </g>
      </g>
      <g id="line2d_6">
        <g class="st7">
          <path class="st1" d="M194.77,210.81l-66.41-51.34"/>
        </g>
      </g>
      <g id="line2d_7">
        <g class="st6">
          <path class="st1" d="M194.77,210.81l-.33-52.97"/>
        </g>
      </g>
      <g id="text_1">
        <g>
          <path id="DejaVuSans-6e" class="st8" d="M156.65,300.92v3.3h-.9v-3.27c0-.52-.1-.9-.3-1.16-.2-.26-.5-.39-.91-.39-.49,0-.87.15-1.15.46-.28.31-.42.73-.42,1.26v3.09h-.9v-5.47h.9v.85c.22-.33.47-.58.76-.74.29-.16.63-.24,1.01-.24.63,0,1.1.19,1.43.58.32.39.48.96.48,1.72Z"/>
          <path id="DejaVuSans-79" class="st8" d="M160.72,304.73c-.25.65-.5,1.08-.74,1.27-.24.2-.56.3-.97.3h-.72v-.75h.53c.25,0,.44-.06.58-.18.14-.12.29-.39.45-.83l.16-.41-2.21-5.38h.95l1.71,4.28,1.71-4.28h.95l-2.4,5.98Z"/>
          <path id="DejaVuSans-63" class="st8" d="M168.3,298.96v.84c-.25-.14-.51-.25-.76-.32s-.51-.1-.77-.1c-.58,0-1.04.18-1.36.55-.32.37-.48.89-.48,1.55s.16,1.19.48,1.56c.32.37.78.55,1.36.55.26,0,.52-.03.77-.1s.51-.18.76-.32v.83c-.25.12-.51.2-.78.26-.27.06-.55.09-.86.09-.82,0-1.48-.26-1.96-.78-.48-.52-.73-1.22-.73-2.1s.24-1.59.73-2.1c.49-.51,1.16-.77,2.02-.77.28,0,.55.03.81.09.26.06.52.14.77.25Z"/>
        </g>
      </g>
      <g id="text_2">
        <g>
          <path id="DejaVuSans-61" class="st8" d="M326.4,214.32c-.73,0-1.23.08-1.51.25s-.42.45-.42.85c0,.32.11.57.32.76.21.19.5.28.86.28.5,0,.9-.18,1.2-.53s.45-.82.45-1.41v-.2h-.89ZM328.19,213.95v3.12h-.9v-.83c-.21.33-.46.58-.77.73-.31.16-.68.24-1.12.24-.56,0-1-.16-1.34-.47-.33-.31-.5-.74-.5-1.26,0-.61.21-1.08.62-1.39.41-.31,1.03-.47,1.84-.47h1.26v-.09c0-.41-.14-.73-.41-.96s-.65-.34-1.15-.34c-.31,0-.62.04-.91.11-.3.08-.58.19-.85.34v-.83c.33-.13.65-.22.96-.28.31-.06.61-.1.9-.1.79,0,1.38.21,1.77.62.39.41.59,1.03.59,1.86Z"/>
          <path id="DejaVuSans-6d" class="st8" d="M334.3,212.65c.23-.4.49-.7.81-.89s.68-.29,1.1-.29c.57,0,1.01.2,1.32.6.31.4.46.96.46,1.7v3.3h-.9v-3.27c0-.52-.09-.91-.28-1.17-.19-.25-.47-.38-.85-.38-.47,0-.83.15-1.1.46-.27.31-.4.73-.4,1.26v3.09h-.9v-3.27c0-.53-.09-.92-.28-1.17s-.47-.38-.86-.38c-.46,0-.82.16-1.1.47-.27.31-.4.73-.4,1.26v3.09h-.9v-5.47h.9v.85c.21-.34.45-.58.74-.74s.63-.24,1.02-.24.74.1,1.01.3c.28.2.48.49.62.88Z"/>
          <path id="DejaVuSans-611" data-name="DejaVuSans-61" class="st8" d="M342.27,214.32c-.73,0-1.23.08-1.51.25s-.42.45-.42.85c0,.32.11.57.32.76.21.19.5.28.86.28.5,0,.9-.18,1.2-.53s.45-.82.45-1.41v-.2h-.89ZM344.06,213.95v3.12h-.9v-.83c-.21.33-.46.58-.77.73-.31.16-.68.24-1.12.24-.56,0-1-.16-1.34-.47-.33-.31-.5-.74-.5-1.26,0-.61.21-1.08.62-1.39.41-.31,1.03-.47,1.84-.47h1.26v-.09c0-.41-.14-.73-.41-.96s-.65-.34-1.15-.34c-.31,0-.62.04-.91.11-.3.08-.58.19-.85.34v-.83c.33-.13.65-.22.96-.28.31-.06.61-.1.9-.1.79,0,1.38.21,1.77.62.39.41.59,1.03.59,1.86Z"/>
          <path id="DejaVuSans-7a" class="st8" d="M345.52,211.6h4.27v.82l-3.38,3.93h3.38v.72h-4.39v-.82l3.38-3.93h-3.26v-.72Z"/>
          <path id="DejaVuSans-6f" class="st8" d="M353.28,212.23c-.48,0-.86.19-1.14.56s-.42.89-.42,1.55.14,1.17.42,1.55c.28.38.66.56,1.15.56s.86-.19,1.14-.57c.28-.38.42-.89.42-1.54s-.14-1.16-.42-1.54c-.28-.38-.66-.57-1.14-.57ZM353.28,211.47c.78,0,1.39.25,1.84.76.45.51.67,1.21.67,2.11s-.22,1.6-.67,2.11c-.45.51-1.06.76-1.84.76s-1.4-.25-1.84-.76c-.44-.51-.67-1.21-.67-2.11s.22-1.6.67-2.11c.44-.51,1.06-.76,1.84-.76Z"/>
          <path id="DejaVuSans-6e1" data-name="DejaVuSans-6e" class="st8" d="M361.82,213.76v3.3h-.9v-3.27c0-.52-.1-.9-.3-1.16-.2-.26-.5-.39-.91-.39-.49,0-.87.15-1.15.46-.28.31-.42.73-.42,1.26v3.09h-.9v-5.47h.9v.85c.22-.33.47-.58.76-.74.29-.16.63-.24,1.01-.24.63,0,1.1.19,1.43.58.32.39.48.96.48,1.72Z"/>
        </g>
      </g>
      <g id="text_3">
        <g>
          <path id="DejaVuSans-67" class="st8" d="M138.99,151.93c0-.65-.13-1.16-.4-1.51-.27-.36-.64-.54-1.13-.54s-.86.18-1.13.54c-.27.36-.4.86-.4,1.51s.13,1.15.4,1.51c.27.36.64.54,1.13.54s.86-.18,1.13-.54c.27-.36.4-.86.4-1.51ZM139.89,154.05c0,.93-.21,1.62-.62,2.08-.41.45-1.05.68-1.9.68-.32,0-.61-.02-.89-.07s-.55-.12-.82-.22v-.87c.26.14.52.25.78.32.26.07.52.1.79.1.59,0,1.03-.15,1.32-.46.29-.31.44-.77.44-1.39v-.45c-.19.32-.42.56-.71.72s-.64.24-1.04.24c-.67,0-1.21-.26-1.62-.77-.41-.51-.62-1.19-.62-2.03s.21-1.52.62-2.03c.41-.51.95-.77,1.62-.77.4,0,.75.08,1.04.24s.53.4.71.72v-.83h.9v4.79Z"/>
          <path id="DejaVuSans-72" class="st8" d="M144.91,150.1c-.1-.06-.21-.1-.33-.13-.12-.03-.25-.04-.39-.04-.51,0-.9.17-1.17.5s-.41.8-.41,1.42v2.88h-.9v-5.47h.9v.85c.19-.33.44-.58.74-.74.3-.16.67-.24,1.1-.24.06,0,.13,0,.2.01.08,0,.16.02.25.04v.92Z"/>
          <path id="DejaVuSans-65" class="st8" d="M150.3,151.77v.44h-4.13c.04.62.23,1.09.56,1.41.33.32.8.49,1.39.49.34,0,.68-.04,1-.13s.65-.21.97-.38v.85c-.32.14-.65.24-.99.31s-.68.11-1.03.11c-.87,0-1.56-.25-2.07-.76-.51-.51-.76-1.2-.76-2.06s.24-1.6.73-2.13c.48-.53,1.14-.79,1.96-.79.74,0,1.32.24,1.75.71.43.47.64,1.12.64,1.93ZM149.41,151.5c0-.49-.14-.88-.41-1.18-.27-.29-.62-.44-1.07-.44-.5,0-.9.14-1.2.43s-.47.68-.52,1.2h3.2Z"/>
          <path id="DejaVuSans-651" data-name="DejaVuSans-65" class="st8" d="M156.46,151.77v.44h-4.13c.04.62.23,1.09.56,1.41.33.32.8.49,1.39.49.34,0,.68-.04,1-.13s.65-.21.97-.38v.85c-.32.14-.65.24-.99.31s-.68.11-1.03.11c-.87,0-1.56-.25-2.07-.76-.51-.51-.76-1.2-.76-2.06s.24-1.6.73-2.13c.48-.53,1.14-.79,1.96-.79.74,0,1.32.24,1.75.71.43.47.64,1.12.64,1.93ZM155.56,151.5c0-.49-.14-.88-.41-1.18-.27-.29-.62-.44-1.07-.44-.5,0-.9.14-1.2.43s-.47.68-.52,1.2h3.2Z"/>
          <path id="DejaVuSans-6e2" data-name="DejaVuSans-6e" class="st8" d="M162.48,151.42v3.3h-.9v-3.27c0-.52-.1-.9-.3-1.16-.2-.26-.5-.39-.91-.39-.49,0-.87.15-1.15.46-.28.31-.42.73-.42,1.26v3.09h-.9v-5.47h.9v.85c.22-.33.47-.58.76-.74.29-.16.63-.24,1.01-.24.63,0,1.1.19,1.43.58.32.39.48.96.48,1.72Z"/>
          <path id="DejaVuSans-6c" class="st8" d="M164.27,147.13h.9v7.6h-.9v-7.6Z"/>
          <path id="DejaVuSans-612" data-name="DejaVuSans-61" class="st8" d="M169.53,151.98c-.73,0-1.23.08-1.51.25s-.42.45-.42.85c0,.32.11.57.32.76.21.19.5.28.86.28.5,0,.9-.18,1.2-.53s.45-.82.45-1.41v-.2h-.89ZM171.32,151.61v3.12h-.9v-.83c-.21.33-.46.58-.77.73-.31.16-.68.24-1.12.24-.56,0-1-.16-1.34-.47-.33-.31-.5-.74-.5-1.26,0-.61.21-1.08.62-1.39.41-.31,1.03-.47,1.84-.47h1.26v-.09c0-.41-.14-.73-.41-.96s-.65-.34-1.15-.34c-.31,0-.62.04-.91.11-.3.08-.58.19-.85.34v-.83c.33-.13.65-.22.96-.28.31-.06.61-.1.9-.1.79,0,1.38.21,1.77.62.39.41.59,1.03.59,1.86Z"/>
          <path id="DejaVuSans-6e3" data-name="DejaVuSans-6e" class="st8" d="M177.72,151.42v3.3h-.9v-3.27c0-.52-.1-.9-.3-1.16-.2-.26-.5-.39-.91-.39-.49,0-.87.15-1.15.46-.28.31-.42.73-.42,1.26v3.09h-.9v-5.47h.9v.85c.22-.33.47-.58.76-.74.29-.16.63-.24,1.01-.24.63,0,1.1.19,1.43.58.32.39.48.96.48,1.72Z"/>
          <path id="DejaVuSans-64" class="st8" d="M183.11,150.09v-2.96h.9v7.6h-.9v-.82c-.19.33-.43.57-.72.73-.29.16-.63.24-1.04.24-.66,0-1.2-.26-1.61-.79-.41-.53-.62-1.22-.62-2.08s.21-1.55.62-2.08c.42-.53.95-.79,1.61-.79.4,0,.75.08,1.04.24.29.16.53.4.72.72ZM180.05,152c0,.66.14,1.18.41,1.55.27.38.65.56,1.12.56s.85-.19,1.12-.56c.27-.38.41-.89.41-1.55s-.14-1.18-.41-1.55c-.27-.38-.65-.56-1.12-.56s-.85.19-1.12.56-.41.89-.41,1.55Z"/>
        </g>
      </g>
      <g id="text_4">
        <g>
          <path id="DejaVuSans-73" class="st8" d="M205.23,147.59v.85c-.25-.13-.52-.23-.79-.29-.27-.07-.56-.1-.85-.1-.45,0-.78.07-1,.2-.22.14-.33.34-.33.62,0,.21.08.37.24.49s.48.23.96.34l.31.07c.64.14,1.09.33,1.36.58s.4.6.4,1.04c0,.51-.2.91-.6,1.21-.4.3-.95.44-1.66.44-.29,0-.6-.03-.92-.09-.32-.06-.65-.14-1-.26v-.93c.33.17.66.3.98.39.32.09.64.13.96.13.42,0,.75-.07.98-.22.23-.14.34-.35.34-.61,0-.24-.08-.43-.25-.56-.16-.13-.52-.26-1.08-.38l-.31-.07c-.56-.12-.96-.3-1.21-.54-.25-.24-.37-.58-.37-1,0-.51.18-.91.55-1.19.36-.28.88-.42,1.55-.42.33,0,.64.02.94.07.29.05.56.12.81.22Z"/>
          <path id="DejaVuSans-613" data-name="DejaVuSans-61" class="st8" d="M209.44,150.15c-.73,0-1.23.08-1.51.25s-.42.45-.42.85c0,.32.11.57.32.76.21.19.5.28.86.28.5,0,.9-.18,1.2-.53s.45-.82.45-1.41v-.2h-.89ZM211.24,149.78v3.12h-.9v-.83c-.21.33-.46.58-.77.73-.31.16-.68.24-1.12.24-.56,0-1-.16-1.34-.47-.33-.31-.5-.74-.5-1.26,0-.61.21-1.08.62-1.39.41-.31,1.03-.47,1.84-.47h1.26v-.09c0-.41-.14-.73-.41-.96s-.65-.34-1.15-.34c-.31,0-.62.04-.91.11-.3.08-.58.19-.85.34v-.83c.33-.13.65-.22.96-.28.31-.06.61-.1.9-.1.79,0,1.38.21,1.77.62.39.41.59,1.03.59,1.86Z"/>
          <path id="DejaVuSans-68" class="st8" d="M217.63,149.6v3.3h-.9v-3.27c0-.52-.1-.9-.3-1.16-.2-.26-.5-.39-.91-.39-.49,0-.87.15-1.15.46-.28.31-.42.73-.42,1.26v3.09h-.9v-7.6h.9v2.98c.22-.33.47-.58.76-.74.29-.16.63-.24,1.01-.24.63,0,1.1.19,1.43.58.32.39.48.96.48,1.72Z"/>
          <path id="DejaVuSans-614" data-name="DejaVuSans-61" class="st8" d="M221.91,150.15c-.73,0-1.23.08-1.51.25s-.42.45-.42.85c0,.32.11.57.32.76.21.19.5.28.86.28.5,0,.9-.18,1.2-.53s.45-.82.45-1.41v-.2h-.89ZM223.7,149.78v3.12h-.9v-.83c-.21.33-.46.58-.77.73-.31.16-.68.24-1.12.24-.56,0-1-.16-1.34-.47-.33-.31-.5-.74-.5-1.26,0-.61.21-1.08.62-1.39.41-.31,1.03-.47,1.84-.47h1.26v-.09c0-.41-.14-.73-.41-.96s-.65-.34-1.15-.34c-.31,0-.62.04-.91.11-.3.08-.58.19-.85.34v-.83c.33-.13.65-.22.96-.28.31-.06.61-.1.9-.1.79,0,1.38.21,1.77.62.39.41.59,1.03.59,1.86Z"/>
          <path id="DejaVuSans-721" data-name="DejaVuSans-72" class="st8" d="M228.72,148.27c-.1-.06-.21-.1-.33-.13-.12-.03-.25-.04-.39-.04-.51,0-.9.17-1.17.5s-.41.8-.41,1.42v2.88h-.9v-5.47h.9v.85c.19-.33.44-.58.74-.74.3-.16.67-.24,1.1-.24.06,0,.13,0,.2.01.08,0,.16.02.25.04v.92Z"/>
          <path id="DejaVuSans-615" data-name="DejaVuSans-61" class="st8" d="M232.15,150.15c-.73,0-1.23.08-1.51.25s-.42.45-.42.85c0,.32.11.57.32.76.21.19.5.28.86.28.5,0,.9-.18,1.2-.53s.45-.82.45-1.41v-.2h-.89ZM233.94,149.78v3.12h-.9v-.83c-.21.33-.46.58-.77.73-.31.16-.68.24-1.12.24-.56,0-1-.16-1.34-.47-.33-.31-.5-.74-.5-1.26,0-.61.21-1.08.62-1.39.41-.31,1.03-.47,1.84-.47h1.26v-.09c0-.41-.14-.73-.41-.96s-.65-.34-1.15-.34c-.31,0-.62.04-.91.11-.3.08-.58.19-.85.34v-.83c.33-.13.65-.22.96-.28.31-.06.61-.1.9-.1.79,0,1.38.21,1.77.62.39.41.59,1.03.59,1.86Z"/>
        </g>
      </g>
    </g>
  </g>
</svg>